<mxfile host="app.diagrams.net" modified="2022-09-06T14:57:56.816Z" agent="5.0 (Windows NT 10.0; Win64; x64) AppleWebKit/537.36 (KHTML, like Gecko) Chrome/104.0.0.0 Safari/537.36" etag="FR8rT5NbtwIuzZr7b96_" version="20.2.8" type="github">
  <diagram id="8ksp3hErpKv-nyxeQjTt" name="第 1 页">
    <mxGraphModel dx="309" dy="829" grid="1" gridSize="10" guides="1" tooltips="1" connect="1" arrows="1" fold="1" page="1" pageScale="1" pageWidth="827" pageHeight="1169" math="0" shadow="0">
      <root>
        <mxCell id="0" />
        <mxCell id="1" parent="0" />
        <mxCell id="cIsSLHgfAKZvU-A7_r5H-8" style="edgeStyle=orthogonalEdgeStyle;rounded=0;orthogonalLoop=1;jettySize=auto;html=1;exitX=0.5;exitY=1;exitDx=0;exitDy=0;entryX=0.5;entryY=0;entryDx=0;entryDy=0;" parent="1" source="cIsSLHgfAKZvU-A7_r5H-2" target="cIsSLHgfAKZvU-A7_r5H-3" edge="1">
          <mxGeometry relative="1" as="geometry" />
        </mxCell>
        <mxCell id="cIsSLHgfAKZvU-A7_r5H-2" value="webpack()&lt;br&gt;" style="rounded=1;whiteSpace=wrap;html=1;" parent="1" vertex="1">
          <mxGeometry x="730" y="90" width="110" height="20" as="geometry" />
        </mxCell>
        <mxCell id="cIsSLHgfAKZvU-A7_r5H-7" value="" style="edgeStyle=orthogonalEdgeStyle;rounded=0;orthogonalLoop=1;jettySize=auto;html=1;entryX=0.5;entryY=0;entryDx=0;entryDy=0;" parent="1" source="cIsSLHgfAKZvU-A7_r5H-3" target="cIsSLHgfAKZvU-A7_r5H-9" edge="1">
          <mxGeometry relative="1" as="geometry">
            <mxPoint x="785" y="220" as="targetPoint" />
          </mxGeometry>
        </mxCell>
        <mxCell id="cIsSLHgfAKZvU-A7_r5H-3" value="create()" style="rounded=1;whiteSpace=wrap;html=1;" parent="1" vertex="1">
          <mxGeometry x="730" y="130" width="110" height="20" as="geometry" />
        </mxCell>
        <mxCell id="cIsSLHgfAKZvU-A7_r5H-11" style="edgeStyle=orthogonalEdgeStyle;rounded=0;orthogonalLoop=1;jettySize=auto;html=1;exitX=0.5;exitY=1;exitDx=0;exitDy=0;entryX=0.466;entryY=0.005;entryDx=0;entryDy=0;entryPerimeter=0;" parent="1" source="cIsSLHgfAKZvU-A7_r5H-9" target="cIsSLHgfAKZvU-A7_r5H-10" edge="1">
          <mxGeometry relative="1" as="geometry" />
        </mxCell>
        <mxCell id="cIsSLHgfAKZvU-A7_r5H-13" style="edgeStyle=orthogonalEdgeStyle;rounded=0;orthogonalLoop=1;jettySize=auto;html=1;exitX=1;exitY=0.5;exitDx=0;exitDy=0;entryX=0;entryY=0.5;entryDx=0;entryDy=0;fontSize=11;" parent="1" source="cIsSLHgfAKZvU-A7_r5H-9" target="cIsSLHgfAKZvU-A7_r5H-12" edge="1">
          <mxGeometry relative="1" as="geometry" />
        </mxCell>
        <mxCell id="cIsSLHgfAKZvU-A7_r5H-9" value="createCompiler()" style="rounded=1;whiteSpace=wrap;html=1;" parent="1" vertex="1">
          <mxGeometry x="730" y="165" width="110" height="20" as="geometry" />
        </mxCell>
        <mxCell id="cIsSLHgfAKZvU-A7_r5H-27" style="edgeStyle=orthogonalEdgeStyle;rounded=0;orthogonalLoop=1;jettySize=auto;html=1;fontSize=11;" parent="1" source="cIsSLHgfAKZvU-A7_r5H-10" target="cIsSLHgfAKZvU-A7_r5H-26" edge="1">
          <mxGeometry relative="1" as="geometry" />
        </mxCell>
        <mxCell id="cIsSLHgfAKZvU-A7_r5H-10" value="compiler对象" style="rounded=1;whiteSpace=wrap;html=1;" parent="1" vertex="1">
          <mxGeometry x="730" y="210" width="110" height="20" as="geometry" />
        </mxCell>
        <mxCell id="cIsSLHgfAKZvU-A7_r5H-15" style="edgeStyle=orthogonalEdgeStyle;rounded=0;orthogonalLoop=1;jettySize=auto;html=1;exitX=1;exitY=0.5;exitDx=0;exitDy=0;entryX=0;entryY=0.5;entryDx=0;entryDy=0;fontSize=11;" parent="1" source="cIsSLHgfAKZvU-A7_r5H-12" target="cIsSLHgfAKZvU-A7_r5H-14" edge="1">
          <mxGeometry relative="1" as="geometry" />
        </mxCell>
        <mxCell id="cIsSLHgfAKZvU-A7_r5H-12" value="&lt;font style=&quot;font-size: 11px;&quot;&gt;序列化配置&lt;/font&gt;" style="rounded=1;whiteSpace=wrap;html=1;fontSize=10;fillColor=#dae8fc;strokeColor=#6c8ebf;" parent="1" vertex="1">
          <mxGeometry x="870" y="165" width="110" height="20" as="geometry" />
        </mxCell>
        <mxCell id="cIsSLHgfAKZvU-A7_r5H-17" style="edgeStyle=orthogonalEdgeStyle;rounded=0;orthogonalLoop=1;jettySize=auto;html=1;fontSize=11;" parent="1" source="cIsSLHgfAKZvU-A7_r5H-14" target="cIsSLHgfAKZvU-A7_r5H-16" edge="1">
          <mxGeometry relative="1" as="geometry" />
        </mxCell>
        <mxCell id="cIsSLHgfAKZvU-A7_r5H-14" value="&lt;span style=&quot;font-size: 11px;&quot;&gt;处理配置上下文&lt;/span&gt;" style="rounded=1;whiteSpace=wrap;html=1;fontSize=10;" parent="1" vertex="1">
          <mxGeometry x="1000" y="165" width="110" height="20" as="geometry" />
        </mxCell>
        <mxCell id="cIsSLHgfAKZvU-A7_r5H-19" style="edgeStyle=orthogonalEdgeStyle;rounded=0;orthogonalLoop=1;jettySize=auto;html=1;entryX=0;entryY=0.5;entryDx=0;entryDy=0;fontSize=11;" parent="1" source="cIsSLHgfAKZvU-A7_r5H-16" edge="1">
          <mxGeometry relative="1" as="geometry">
            <mxPoint x="1270" y="175" as="targetPoint" />
          </mxGeometry>
        </mxCell>
        <mxCell id="cIsSLHgfAKZvU-A7_r5H-16" value="&lt;span style=&quot;font-size: 11px;&quot;&gt;new Compiler()&lt;/span&gt;" style="rounded=1;whiteSpace=wrap;html=1;fontSize=10;" parent="1" vertex="1">
          <mxGeometry x="1130" y="165" width="110" height="20" as="geometry" />
        </mxCell>
        <mxCell id="cIsSLHgfAKZvU-A7_r5H-21" style="edgeStyle=orthogonalEdgeStyle;rounded=0;orthogonalLoop=1;jettySize=auto;html=1;exitX=1;exitY=0.5;exitDx=0;exitDy=0;entryX=0;entryY=0.5;entryDx=0;entryDy=0;fontSize=11;" parent="1" source="cIsSLHgfAKZvU-A7_r5H-18" target="cIsSLHgfAKZvU-A7_r5H-20" edge="1">
          <mxGeometry relative="1" as="geometry" />
        </mxCell>
        <mxCell id="cIsSLHgfAKZvU-A7_r5H-18" value="&lt;span style=&quot;font-size: 11px;&quot;&gt;初始化自定义插件&lt;/span&gt;" style="rounded=1;whiteSpace=wrap;html=1;fontSize=10;fillColor=#dae8fc;strokeColor=#6c8ebf;" parent="1" vertex="1">
          <mxGeometry x="1270" y="165" width="110" height="20" as="geometry" />
        </mxCell>
        <mxCell id="cIsSLHgfAKZvU-A7_r5H-23" style="edgeStyle=orthogonalEdgeStyle;rounded=0;orthogonalLoop=1;jettySize=auto;html=1;exitX=1;exitY=0.5;exitDx=0;exitDy=0;fontSize=11;" parent="1" source="cIsSLHgfAKZvU-A7_r5H-20" target="cIsSLHgfAKZvU-A7_r5H-22" edge="1">
          <mxGeometry relative="1" as="geometry" />
        </mxCell>
        <mxCell id="cIsSLHgfAKZvU-A7_r5H-20" value="&lt;span style=&quot;font-size: 11px;&quot;&gt;初始化内置插件&lt;/span&gt;" style="rounded=1;whiteSpace=wrap;html=1;fontSize=10;fillColor=#dae8fc;strokeColor=#6c8ebf;" parent="1" vertex="1">
          <mxGeometry x="1397" y="165" width="110" height="20" as="geometry" />
        </mxCell>
        <mxCell id="cIsSLHgfAKZvU-A7_r5H-25" style="edgeStyle=orthogonalEdgeStyle;rounded=0;orthogonalLoop=1;jettySize=auto;html=1;exitX=1;exitY=0.5;exitDx=0;exitDy=0;entryX=0;entryY=0.5;entryDx=0;entryDy=0;fontSize=11;" parent="1" source="cIsSLHgfAKZvU-A7_r5H-22" target="cIsSLHgfAKZvU-A7_r5H-24" edge="1">
          <mxGeometry relative="1" as="geometry" />
        </mxCell>
        <mxCell id="cIsSLHgfAKZvU-A7_r5H-22" value="&lt;span style=&quot;font-size: 11px;&quot;&gt;触发初始化钩子&lt;/span&gt;" style="rounded=1;whiteSpace=wrap;html=1;fontSize=10;" parent="1" vertex="1">
          <mxGeometry x="1530" y="165" width="110" height="20" as="geometry" />
        </mxCell>
        <mxCell id="cIsSLHgfAKZvU-A7_r5H-24" value="&lt;span style=&quot;font-size: 11px;&quot;&gt;返回compiler&lt;/span&gt;" style="rounded=1;whiteSpace=wrap;html=1;fontSize=10;" parent="1" vertex="1">
          <mxGeometry x="1660" y="165" width="110" height="20" as="geometry" />
        </mxCell>
        <mxCell id="cIsSLHgfAKZvU-A7_r5H-29" style="edgeStyle=orthogonalEdgeStyle;rounded=0;orthogonalLoop=1;jettySize=auto;html=1;entryX=0.5;entryY=0;entryDx=0;entryDy=0;fontSize=11;" parent="1" source="cIsSLHgfAKZvU-A7_r5H-26" target="cIsSLHgfAKZvU-A7_r5H-28" edge="1">
          <mxGeometry relative="1" as="geometry" />
        </mxCell>
        <mxCell id="cIsSLHgfAKZvU-A7_r5H-26" value="compiler.run()" style="rounded=1;whiteSpace=wrap;html=1;fillColor=#dae8fc;strokeColor=#6c8ebf;" parent="1" vertex="1">
          <mxGeometry x="730" y="250" width="110" height="20" as="geometry" />
        </mxCell>
        <mxCell id="cIsSLHgfAKZvU-A7_r5H-33" style="edgeStyle=orthogonalEdgeStyle;rounded=0;orthogonalLoop=1;jettySize=auto;html=1;entryX=0;entryY=0.5;entryDx=0;entryDy=0;fontSize=11;" parent="1" source="cIsSLHgfAKZvU-A7_r5H-28" target="cIsSLHgfAKZvU-A7_r5H-31" edge="1">
          <mxGeometry relative="1" as="geometry" />
        </mxCell>
        <mxCell id="cIsSLHgfAKZvU-A7_r5H-35" style="edgeStyle=orthogonalEdgeStyle;rounded=0;orthogonalLoop=1;jettySize=auto;html=1;entryX=0.5;entryY=0;entryDx=0;entryDy=0;fontSize=11;" parent="1" source="cIsSLHgfAKZvU-A7_r5H-28" target="cIsSLHgfAKZvU-A7_r5H-30" edge="1">
          <mxGeometry relative="1" as="geometry" />
        </mxCell>
        <mxCell id="cIsSLHgfAKZvU-A7_r5H-28" value="run()" style="rounded=1;whiteSpace=wrap;html=1;" parent="1" vertex="1">
          <mxGeometry x="730" y="290" width="110" height="20" as="geometry" />
        </mxCell>
        <mxCell id="cIsSLHgfAKZvU-A7_r5H-37" style="edgeStyle=orthogonalEdgeStyle;rounded=0;orthogonalLoop=1;jettySize=auto;html=1;exitX=1;exitY=0.5;exitDx=0;exitDy=0;entryX=0;entryY=0.5;entryDx=0;entryDy=0;fontSize=11;" parent="1" source="cIsSLHgfAKZvU-A7_r5H-30" target="cIsSLHgfAKZvU-A7_r5H-36" edge="1">
          <mxGeometry relative="1" as="geometry" />
        </mxCell>
        <mxCell id="cIsSLHgfAKZvU-A7_r5H-39" style="edgeStyle=orthogonalEdgeStyle;rounded=0;orthogonalLoop=1;jettySize=auto;html=1;exitX=0.5;exitY=1;exitDx=0;exitDy=0;entryX=0.425;entryY=-0.079;entryDx=0;entryDy=0;entryPerimeter=0;fontSize=11;" parent="1" source="cIsSLHgfAKZvU-A7_r5H-30" target="cIsSLHgfAKZvU-A7_r5H-38" edge="1">
          <mxGeometry relative="1" as="geometry" />
        </mxCell>
        <mxCell id="cIsSLHgfAKZvU-A7_r5H-30" value="compile()" style="rounded=1;whiteSpace=wrap;html=1;" parent="1" vertex="1">
          <mxGeometry x="730" y="330" width="110" height="20" as="geometry" />
        </mxCell>
        <mxCell id="cIsSLHgfAKZvU-A7_r5H-34" style="edgeStyle=orthogonalEdgeStyle;rounded=0;orthogonalLoop=1;jettySize=auto;html=1;entryX=0;entryY=0.5;entryDx=0;entryDy=0;fontSize=11;" parent="1" source="cIsSLHgfAKZvU-A7_r5H-31" target="cIsSLHgfAKZvU-A7_r5H-32" edge="1">
          <mxGeometry relative="1" as="geometry" />
        </mxCell>
        <mxCell id="cIsSLHgfAKZvU-A7_r5H-31" value="hooks.beforeRun" style="rounded=1;whiteSpace=wrap;html=1;" parent="1" vertex="1">
          <mxGeometry x="870" y="290" width="110" height="20" as="geometry" />
        </mxCell>
        <mxCell id="cIsSLHgfAKZvU-A7_r5H-32" value="hook.run" style="rounded=1;whiteSpace=wrap;html=1;" parent="1" vertex="1">
          <mxGeometry x="1000" y="290" width="110" height="20" as="geometry" />
        </mxCell>
        <mxCell id="cIsSLHgfAKZvU-A7_r5H-36" value="compilationParams" style="rounded=1;whiteSpace=wrap;html=1;" parent="1" vertex="1">
          <mxGeometry x="870" y="330" width="110" height="20" as="geometry" />
        </mxCell>
        <mxCell id="cIsSLHgfAKZvU-A7_r5H-43" style="edgeStyle=orthogonalEdgeStyle;rounded=0;orthogonalLoop=1;jettySize=auto;html=1;exitX=1;exitY=0.5;exitDx=0;exitDy=0;fontSize=11;" parent="1" source="cIsSLHgfAKZvU-A7_r5H-38" target="cIsSLHgfAKZvU-A7_r5H-40" edge="1">
          <mxGeometry relative="1" as="geometry" />
        </mxCell>
        <mxCell id="cIsSLHgfAKZvU-A7_r5H-47" style="edgeStyle=orthogonalEdgeStyle;rounded=0;orthogonalLoop=1;jettySize=auto;html=1;exitX=0.5;exitY=1;exitDx=0;exitDy=0;entryX=0.5;entryY=0;entryDx=0;entryDy=0;fontSize=11;" parent="1" source="cIsSLHgfAKZvU-A7_r5H-38" target="cIsSLHgfAKZvU-A7_r5H-45" edge="1">
          <mxGeometry relative="1" as="geometry" />
        </mxCell>
        <mxCell id="cIsSLHgfAKZvU-A7_r5H-38" value="hooks.beforeCompile()" style="rounded=1;verticalAlign=middle;whiteSpace=wrap;html=1;" parent="1" vertex="1">
          <mxGeometry x="730" y="370" width="130" height="20" as="geometry" />
        </mxCell>
        <mxCell id="cIsSLHgfAKZvU-A7_r5H-67" style="edgeStyle=orthogonalEdgeStyle;rounded=0;orthogonalLoop=1;jettySize=auto;html=1;exitX=1;exitY=0.5;exitDx=0;exitDy=0;entryX=0;entryY=0.5;entryDx=0;entryDy=0;fontSize=11;" parent="1" source="cIsSLHgfAKZvU-A7_r5H-40" target="cIsSLHgfAKZvU-A7_r5H-66" edge="1">
          <mxGeometry relative="1" as="geometry" />
        </mxCell>
        <mxCell id="cIsSLHgfAKZvU-A7_r5H-40" value="hooks.compile()" style="rounded=1;verticalAlign=middle;whiteSpace=wrap;html=1;" parent="1" vertex="1">
          <mxGeometry x="880" y="370" width="110" height="20" as="geometry" />
        </mxCell>
        <mxCell id="cIsSLHgfAKZvU-A7_r5H-49" style="edgeStyle=orthogonalEdgeStyle;rounded=0;orthogonalLoop=1;jettySize=auto;html=1;exitX=0.5;exitY=1;exitDx=0;exitDy=0;fontSize=11;" parent="1" source="cIsSLHgfAKZvU-A7_r5H-45" target="cIsSLHgfAKZvU-A7_r5H-48" edge="1">
          <mxGeometry relative="1" as="geometry" />
        </mxCell>
        <mxCell id="cIsSLHgfAKZvU-A7_r5H-45" value="hooks.make()" style="rounded=1;verticalAlign=middle;whiteSpace=wrap;html=1;fillColor=#dae8fc;strokeColor=#6c8ebf;" parent="1" vertex="1">
          <mxGeometry x="730" y="410" width="110" height="20" as="geometry" />
        </mxCell>
        <mxCell id="cIsSLHgfAKZvU-A7_r5H-52" style="edgeStyle=orthogonalEdgeStyle;rounded=0;orthogonalLoop=1;jettySize=auto;html=1;exitX=0.5;exitY=1;exitDx=0;exitDy=0;entryX=0.5;entryY=0;entryDx=0;entryDy=0;fontSize=11;" parent="1" source="cIsSLHgfAKZvU-A7_r5H-48" target="cIsSLHgfAKZvU-A7_r5H-50" edge="1">
          <mxGeometry relative="1" as="geometry" />
        </mxCell>
        <mxCell id="cIsSLHgfAKZvU-A7_r5H-48" value="hooks.finishMake()" style="rounded=1;verticalAlign=middle;whiteSpace=wrap;html=1;" parent="1" vertex="1">
          <mxGeometry x="730" y="450" width="110" height="20" as="geometry" />
        </mxCell>
        <mxCell id="cIsSLHgfAKZvU-A7_r5H-53" style="edgeStyle=orthogonalEdgeStyle;rounded=0;orthogonalLoop=1;jettySize=auto;html=1;exitX=0.5;exitY=1;exitDx=0;exitDy=0;entryX=0.5;entryY=0;entryDx=0;entryDy=0;fontSize=11;" parent="1" source="cIsSLHgfAKZvU-A7_r5H-50" target="cIsSLHgfAKZvU-A7_r5H-51" edge="1">
          <mxGeometry relative="1" as="geometry" />
        </mxCell>
        <mxCell id="cIsSLHgfAKZvU-A7_r5H-50" value="compilation.finish()" style="rounded=1;verticalAlign=middle;whiteSpace=wrap;html=1;fillColor=#dae8fc;strokeColor=#6c8ebf;" parent="1" vertex="1">
          <mxGeometry x="730" y="490" width="110" height="20" as="geometry" />
        </mxCell>
        <mxCell id="cIsSLHgfAKZvU-A7_r5H-55" style="edgeStyle=orthogonalEdgeStyle;rounded=0;orthogonalLoop=1;jettySize=auto;html=1;exitX=0.5;exitY=1;exitDx=0;exitDy=0;entryX=0.5;entryY=0;entryDx=0;entryDy=0;fontSize=11;" parent="1" source="cIsSLHgfAKZvU-A7_r5H-51" target="cIsSLHgfAKZvU-A7_r5H-54" edge="1">
          <mxGeometry relative="1" as="geometry" />
        </mxCell>
        <mxCell id="cIsSLHgfAKZvU-A7_r5H-51" value="compilation.seal()" style="rounded=1;verticalAlign=middle;whiteSpace=wrap;html=1;fillColor=#dae8fc;strokeColor=#6c8ebf;" parent="1" vertex="1">
          <mxGeometry x="730" y="530" width="110" height="20" as="geometry" />
        </mxCell>
        <mxCell id="azcimhrwpPbbcO4LnYap-6" style="edgeStyle=orthogonalEdgeStyle;rounded=0;orthogonalLoop=1;jettySize=auto;html=1;exitX=0.5;exitY=1;exitDx=0;exitDy=0;entryX=0.5;entryY=0;entryDx=0;entryDy=0;" parent="1" source="cIsSLHgfAKZvU-A7_r5H-54" target="cIsSLHgfAKZvU-A7_r5H-56" edge="1">
          <mxGeometry relative="1" as="geometry" />
        </mxCell>
        <mxCell id="cIsSLHgfAKZvU-A7_r5H-54" value="hooks.afterCompile()" style="rounded=1;verticalAlign=middle;whiteSpace=wrap;html=1;" parent="1" vertex="1">
          <mxGeometry x="730" y="570" width="120" height="20" as="geometry" />
        </mxCell>
        <mxCell id="azcimhrwpPbbcO4LnYap-7" style="edgeStyle=orthogonalEdgeStyle;rounded=0;orthogonalLoop=1;jettySize=auto;html=1;exitX=0.25;exitY=1;exitDx=0;exitDy=0;entryX=0.5;entryY=0;entryDx=0;entryDy=0;" parent="1" source="cIsSLHgfAKZvU-A7_r5H-56" target="azcimhrwpPbbcO4LnYap-1" edge="1">
          <mxGeometry relative="1" as="geometry" />
        </mxCell>
        <mxCell id="azcimhrwpPbbcO4LnYap-12" style="edgeStyle=orthogonalEdgeStyle;rounded=0;orthogonalLoop=1;jettySize=auto;html=1;exitX=0.5;exitY=1;exitDx=0;exitDy=0;entryX=0.5;entryY=0;entryDx=0;entryDy=0;" parent="1" source="cIsSLHgfAKZvU-A7_r5H-56" target="azcimhrwpPbbcO4LnYap-10" edge="1">
          <mxGeometry relative="1" as="geometry" />
        </mxCell>
        <mxCell id="cIsSLHgfAKZvU-A7_r5H-56" value="onCompiled()" style="rounded=1;verticalAlign=middle;whiteSpace=wrap;html=1;" parent="1" vertex="1">
          <mxGeometry x="730" y="610" width="110" height="20" as="geometry" />
        </mxCell>
        <mxCell id="cIsSLHgfAKZvU-A7_r5H-61" style="edgeStyle=orthogonalEdgeStyle;rounded=0;orthogonalLoop=1;jettySize=auto;html=1;exitX=1;exitY=0.25;exitDx=0;exitDy=0;entryX=0;entryY=0.5;entryDx=0;entryDy=0;fontSize=11;" parent="1" source="cIsSLHgfAKZvU-A7_r5H-58" target="cIsSLHgfAKZvU-A7_r5H-60" edge="1">
          <mxGeometry relative="1" as="geometry">
            <Array as="points">
              <mxPoint x="840" y="810" />
            </Array>
          </mxGeometry>
        </mxCell>
        <mxCell id="cIsSLHgfAKZvU-A7_r5H-64" style="edgeStyle=orthogonalEdgeStyle;rounded=0;orthogonalLoop=1;jettySize=auto;html=1;exitX=0.5;exitY=1;exitDx=0;exitDy=0;entryX=0.5;entryY=0;entryDx=0;entryDy=0;fontSize=11;" parent="1" source="cIsSLHgfAKZvU-A7_r5H-58" target="cIsSLHgfAKZvU-A7_r5H-62" edge="1">
          <mxGeometry relative="1" as="geometry" />
        </mxCell>
        <mxCell id="cIsSLHgfAKZvU-A7_r5H-58" value="emitRecords()" style="rounded=1;verticalAlign=middle;whiteSpace=wrap;html=1;" parent="1" vertex="1">
          <mxGeometry x="730" y="800" width="110" height="20" as="geometry" />
        </mxCell>
        <mxCell id="cIsSLHgfAKZvU-A7_r5H-60" value="new Stats()" style="rounded=1;verticalAlign=middle;whiteSpace=wrap;html=1;" parent="1" vertex="1">
          <mxGeometry x="870" y="800" width="110" height="20" as="geometry" />
        </mxCell>
        <mxCell id="cIsSLHgfAKZvU-A7_r5H-65" style="edgeStyle=orthogonalEdgeStyle;rounded=0;orthogonalLoop=1;jettySize=auto;html=1;exitX=0.5;exitY=1;exitDx=0;exitDy=0;entryX=0.5;entryY=0;entryDx=0;entryDy=0;fontSize=11;" parent="1" source="cIsSLHgfAKZvU-A7_r5H-62" target="cIsSLHgfAKZvU-A7_r5H-63" edge="1">
          <mxGeometry relative="1" as="geometry" />
        </mxCell>
        <mxCell id="cIsSLHgfAKZvU-A7_r5H-62" value="hooks.done()" style="rounded=1;verticalAlign=middle;whiteSpace=wrap;html=1;" parent="1" vertex="1">
          <mxGeometry x="730" y="840" width="110" height="20" as="geometry" />
        </mxCell>
        <mxCell id="cIsSLHgfAKZvU-A7_r5H-63" value="hooks.afterDone()" style="rounded=1;verticalAlign=middle;whiteSpace=wrap;html=1;" parent="1" vertex="1">
          <mxGeometry x="730" y="880" width="110" height="20" as="geometry" />
        </mxCell>
        <mxCell id="cIsSLHgfAKZvU-A7_r5H-66" value="hooks.compilation()" style="rounded=1;verticalAlign=middle;whiteSpace=wrap;html=1;" parent="1" vertex="1">
          <mxGeometry x="1010" y="370" width="110" height="20" as="geometry" />
        </mxCell>
        <mxCell id="azcimhrwpPbbcO4LnYap-8" style="edgeStyle=orthogonalEdgeStyle;rounded=0;orthogonalLoop=1;jettySize=auto;html=1;exitX=0.5;exitY=1;exitDx=0;exitDy=0;" parent="1" source="azcimhrwpPbbcO4LnYap-1" target="azcimhrwpPbbcO4LnYap-3" edge="1">
          <mxGeometry relative="1" as="geometry" />
        </mxCell>
        <mxCell id="azcimhrwpPbbcO4LnYap-9" style="edgeStyle=orthogonalEdgeStyle;rounded=0;orthogonalLoop=1;jettySize=auto;html=1;exitX=0.5;exitY=1;exitDx=0;exitDy=0;" parent="1" source="azcimhrwpPbbcO4LnYap-1" target="azcimhrwpPbbcO4LnYap-2" edge="1">
          <mxGeometry relative="1" as="geometry" />
        </mxCell>
        <mxCell id="azcimhrwpPbbcO4LnYap-1" value="hooks.done" style="rounded=1;verticalAlign=middle;whiteSpace=wrap;html=1;" parent="1" vertex="1">
          <mxGeometry x="510" y="690" width="110" height="20" as="geometry" />
        </mxCell>
        <mxCell id="azcimhrwpPbbcO4LnYap-2" value="hooks.failed" style="rounded=1;verticalAlign=middle;whiteSpace=wrap;html=1;" parent="1" vertex="1">
          <mxGeometry x="570" y="750" width="110" height="20" as="geometry" />
        </mxCell>
        <mxCell id="azcimhrwpPbbcO4LnYap-3" value="hooks.afterDone" style="rounded=1;verticalAlign=middle;whiteSpace=wrap;html=1;" parent="1" vertex="1">
          <mxGeometry x="430" y="750" width="110" height="20" as="geometry" />
        </mxCell>
        <mxCell id="azcimhrwpPbbcO4LnYap-11" style="edgeStyle=orthogonalEdgeStyle;rounded=0;orthogonalLoop=1;jettySize=auto;html=1;exitX=0.5;exitY=1;exitDx=0;exitDy=0;entryX=0.5;entryY=0;entryDx=0;entryDy=0;" parent="1" source="azcimhrwpPbbcO4LnYap-10" target="cIsSLHgfAKZvU-A7_r5H-58" edge="1">
          <mxGeometry relative="1" as="geometry" />
        </mxCell>
        <mxCell id="azcimhrwpPbbcO4LnYap-10" value="emitAssets()" style="rounded=1;verticalAlign=middle;whiteSpace=wrap;html=1;" parent="1" vertex="1">
          <mxGeometry x="730" y="690" width="110" height="20" as="geometry" />
        </mxCell>
        <mxCell id="azcimhrwpPbbcO4LnYap-13" value="sholdEmit===false" style="text;html=1;align=center;verticalAlign=middle;resizable=0;points=[];autosize=1;strokeColor=none;fillColor=none;" parent="1" vertex="1">
          <mxGeometry x="580" y="635" width="120" height="30" as="geometry" />
        </mxCell>
        <mxCell id="azcimhrwpPbbcO4LnYap-14" value="hooks.emit" style="rounded=1;verticalAlign=middle;whiteSpace=wrap;html=1;" parent="1" vertex="1">
          <mxGeometry x="730" y="750" width="110" height="20" as="geometry" />
        </mxCell>
        <mxCell id="azcimhrwpPbbcO4LnYap-16" value="compilation._addEntryItem" style="rounded=1;verticalAlign=middle;whiteSpace=wrap;html=1;" parent="1" vertex="1">
          <mxGeometry x="870" y="410" width="160" height="20" as="geometry" />
        </mxCell>
        <mxCell id="azcimhrwpPbbcO4LnYap-17" value="compilation.addModuleTree" style="rounded=1;verticalAlign=middle;whiteSpace=wrap;html=1;" parent="1" vertex="1">
          <mxGeometry x="1060" y="410" width="160" height="20" as="geometry" />
        </mxCell>
        <mxCell id="azcimhrwpPbbcO4LnYap-18" value="compilation.handleModuleCreation" style="rounded=1;verticalAlign=middle;whiteSpace=wrap;html=1;" parent="1" vertex="1">
          <mxGeometry x="1250" y="410" width="200" height="20" as="geometry" />
        </mxCell>
        <mxCell id="azcimhrwpPbbcO4LnYap-19" value="compilation._factorizeModule" style="rounded=1;verticalAlign=middle;whiteSpace=wrap;html=1;" parent="1" vertex="1">
          <mxGeometry x="1480" y="410" width="170" height="20" as="geometry" />
        </mxCell>
        <mxCell id="azcimhrwpPbbcO4LnYap-21" value="NMF.create" style="rounded=1;verticalAlign=middle;whiteSpace=wrap;html=1;" parent="1" vertex="1">
          <mxGeometry x="1680" y="410" width="120" height="20" as="geometry" />
        </mxCell>
        <mxCell id="azcimhrwpPbbcO4LnYap-23" value="hooks.beforeResolve" style="rounded=1;verticalAlign=middle;whiteSpace=wrap;html=1;" parent="1" vertex="1">
          <mxGeometry x="1680" y="460" width="120" height="20" as="geometry" />
        </mxCell>
        <mxCell id="azcimhrwpPbbcO4LnYap-24" value="hooks.factorize" style="rounded=1;verticalAlign=middle;whiteSpace=wrap;html=1;" parent="1" vertex="1">
          <mxGeometry x="1680" y="500" width="120" height="20" as="geometry" />
        </mxCell>
        <mxCell id="azcimhrwpPbbcO4LnYap-25" value="hooks.resolve" style="rounded=1;verticalAlign=middle;whiteSpace=wrap;html=1;" parent="1" vertex="1">
          <mxGeometry x="1680" y="540" width="120" height="20" as="geometry" />
        </mxCell>
        <mxCell id="azcimhrwpPbbcO4LnYap-26" value="hooks.afterResolve" style="rounded=1;verticalAlign=middle;whiteSpace=wrap;html=1;" parent="1" vertex="1">
          <mxGeometry x="1680" y="584.5" width="120" height="20" as="geometry" />
        </mxCell>
        <mxCell id="azcimhrwpPbbcO4LnYap-27" value="hooks.createModule" style="rounded=1;verticalAlign=middle;whiteSpace=wrap;html=1;" parent="1" vertex="1">
          <mxGeometry x="1680" y="630" width="120" height="20" as="geometry" />
        </mxCell>
        <mxCell id="azcimhrwpPbbcO4LnYap-28" value="hooks.module" style="rounded=1;verticalAlign=middle;whiteSpace=wrap;html=1;" parent="1" vertex="1">
          <mxGeometry x="1680" y="670" width="120" height="20" as="geometry" />
        </mxCell>
      </root>
    </mxGraphModel>
  </diagram>
</mxfile>
